<?xml version="1.0" standalone="no"?>
<!DOCTYPE svg PUBLIC "-//W3C//DTD SVG 20010904//EN"
 "http://www.w3.org/TR/2001/REC-SVG-20010904/DTD/svg10.dtd">
<svg version="1.0" xmlns="http://www.w3.org/2000/svg"
 width="242.000000pt" height="242.000000pt" viewBox="0 0 242.000000 242.000000"
 preserveAspectRatio="xMidYMid meet">
<metadata>
Created by potrace 1.11, written by Peter Selinger 2001-2013
</metadata>
<g transform="translate(0.000000,242.000000) scale(0.100000,-0.100000)"
fill="#000000" stroke="none">
<path d="M540 2245 l0 -175 80 0 80 0 0 175 0 175 -80 0 -80 0 0 -175z"/>
<path d="M780 2245 l0 -175 80 0 80 0 0 175 0 175 -80 0 -80 0 0 -175z"/>
<path d="M1020 2245 l0 -175 80 0 80 0 0 175 0 175 -80 0 -80 0 0 -175z"/>
<path d="M1260 2245 l0 -175 80 0 80 0 0 175 0 175 -80 0 -80 0 0 -175z"/>
<path d="M1500 2245 l0 -175 80 0 80 0 0 175 0 175 -80 0 -80 0 0 -175z"/>
<path d="M1740 2245 l0 -175 80 0 80 0 0 175 0 175 -80 0 -80 0 0 -175z"/>
<path d="M492 1937 l-52 -53 0 -675 0 -675 53 -52 53 -52 675 0 675 0 52 53
52 53 0 675 0 675 -53 52 -53 52 -675 0 -675 0 -52 -53z"/>
<path d="M0 1800 l0 -80 180 0 180 0 0 80 0 80 -180 0 -180 0 0 -80z"/>
<path d="M2070 1800 l0 -80 175 0 175 0 0 80 0 80 -175 0 -175 0 0 -80z"/>
<path d="M0 1570 l0 -80 180 0 180 0 0 80 0 80 -180 0 -180 0 0 -80z"/>
<path d="M2070 1570 l0 -80 175 0 175 0 0 80 0 80 -175 0 -175 0 0 -80z"/>
<path d="M0 1330 l0 -80 180 0 180 0 0 80 0 80 -180 0 -180 0 0 -80z"/>
<path d="M2070 1330 l0 -80 175 0 175 0 0 80 0 80 -175 0 -175 0 0 -80z"/>
<path d="M0 1090 l0 -80 180 0 180 0 0 80 0 80 -180 0 -180 0 0 -80z"/>
<path d="M2070 1090 l0 -80 175 0 175 0 0 80 0 80 -175 0 -175 0 0 -80z"/>
<path d="M0 850 l0 -80 180 0 180 0 0 80 0 80 -180 0 -180 0 0 -80z"/>
<path d="M2070 850 l0 -80 175 0 175 0 0 80 0 80 -175 0 -175 0 0 -80z"/>
<path d="M0 610 l0 -80 180 0 180 0 0 80 0 80 -180 0 -180 0 0 -80z"/>
<path d="M2070 610 l0 -80 175 0 175 0 0 80 0 80 -175 0 -175 0 0 -80z"/>
<path d="M540 175 l0 -175 80 0 80 0 0 175 0 175 -80 0 -80 0 0 -175z"/>
<path d="M780 175 l0 -175 80 0 80 0 0 175 0 175 -80 0 -80 0 0 -175z"/>
<path d="M1020 175 l0 -175 80 0 80 0 0 175 0 175 -80 0 -80 0 0 -175z"/>
<path d="M1260 175 l0 -175 80 0 80 0 0 175 0 175 -80 0 -80 0 0 -175z"/>
<path d="M1500 175 l0 -175 80 0 80 0 0 175 0 175 -80 0 -80 0 0 -175z"/>
<path d="M1740 175 l0 -175 80 0 80 0 0 175 0 175 -80 0 -80 0 0 -175z"/>
</g>
</svg>
